<svg width="12" height="12" viewBox="0 0 12 12" fill="none" xmlns="http://www.w3.org/2000/svg">
<path fill-rule="evenodd" clip-rule="evenodd" d="M6 12C9.31368 12 12 9.31368 12 6C12 2.68629 9.31368 0 6 0C2.68629 0 0 2.68629 0 6C0 9.31368 2.68629 12 6 12ZM5.4 3.6C5.4 3.26863 5.66862 3 6 3C6.33138 3 6.6 3.26863 6.6 3.6V5.4H8.4C8.73138 5.4 9 5.66862 9 6C9 6.33138 8.73138 6.6 8.4 6.6H6.6V8.4C6.6 8.73138 6.33138 9 6 9C5.66862 9 5.4 8.73138 5.4 8.4V6.6H3.6C3.26863 6.6 3 6.33138 3 6C3 5.66862 3.26863 5.4 3.6 5.4H5.4V3.6Z" fill="#216CB0"/>
</svg>
