<svg id="alert-icon" xmlns="http://www.w3.org/2000/svg" width="29" height="29" viewBox="0 0 29 29">
  <rect id="Rectangle_5" data-name="Rectangle 5" width="29" height="29" rx="14.5" fill="#ffd6d6"/>
  <path id="Path_4" data-name="Path 4" d="M19.913,18.733h-.062l-1.083-5.747A2.957,2.957,0,0,0,17.7,11.234a3.167,3.167,0,0,0-1.983-.689H13.278a3.167,3.167,0,0,0-1.983.689,2.957,2.957,0,0,0-1.064,1.752L9.149,18.733H9.087a1.578,1.578,0,0,0-1.094.436,1.461,1.461,0,0,0-.453,1.053v.744a1.461,1.461,0,0,0,.453,1.053,1.578,1.578,0,0,0,1.094.436H19.913a1.577,1.577,0,0,0,1.094-.436,1.461,1.461,0,0,0,.453-1.053v-.744a1.461,1.461,0,0,0-.453-1.053A1.578,1.578,0,0,0,19.913,18.733Zm-8.159-5.479a1.479,1.479,0,0,1,.541-.883,1.585,1.585,0,0,1,1.006-.337.394.394,0,0,1,.273.109.362.362,0,0,1,0,.526.394.394,0,0,1-.273.109.793.793,0,0,0-.5.169.739.739,0,0,0-.27.442l-.773,4.3a.37.37,0,0,1-.15.234.4.4,0,0,1-.276.071h-.07a.389.389,0,0,1-.247-.155.361.361,0,0,1-.062-.277Z" fill="red"/>
</svg>
