<svg width="10" height="8" viewBox="0 0 10 8" fill="none" xmlns="http://www.w3.org/2000/svg">
<path d="M4.99992 1.83341C4.99992 2.75387 4.25371 3.50008 3.33325 3.50008C2.41278 3.50008 1.66659 2.75387 1.66659 1.83341C1.66659 0.91294 2.41278 0.166748 3.33325 0.166748C4.25371 0.166748 4.99992 0.91294 4.99992 1.83341ZM8.33325 2.25008C8.33325 2.94046 7.77363 3.50008 7.08325 3.50008C6.39288 3.50008 5.83325 2.94046 5.83325 2.25008C5.83325 1.55973 6.39288 1.00008 7.08325 1.00008C7.77363 1.00008 8.33325 1.55973 8.33325 2.25008ZM0.833252 5.27092C0.833252 4.75316 1.25299 4.33342 1.77075 4.33342H4.89575C5.04996 4.33342 5.1955 4.37066 5.32384 4.43662L4.38017 5.38029C4.0954 5.66508 4.0954 6.12675 4.38017 6.4115L4.87467 6.906C4.51379 7.10983 4.01702 7.25008 3.33325 7.25008C0.833252 7.25008 0.833252 5.37508 0.833252 5.37508V5.27092ZM8.45029 4.6335C8.32825 4.51146 8.13038 4.51146 8.00834 4.6335C7.88629 4.7555 7.88629 4.95337 8.00834 5.07541L8.51634 5.58342H5.65021L6.15817 5.07546C6.28021 4.95341 6.28021 4.75554 6.15817 4.6335C6.03613 4.51146 5.83825 4.51146 5.71621 4.6335L4.67479 5.67496C4.55275 5.79696 4.55275 5.99483 4.67479 6.11687L5.71621 7.15833C5.83825 7.28033 6.03613 7.28033 6.15817 7.15833C6.28021 7.03629 6.28021 6.83842 6.15817 6.71637L5.65021 6.20842H8.51629L8.00834 6.71637C7.88629 6.83842 7.88629 7.03629 8.00834 7.15833C8.13038 7.28033 8.32825 7.28033 8.45029 7.15833L9.49171 6.11687C9.61375 5.99483 9.61375 5.797 9.49171 5.67496L8.45029 4.6335Z" fill="#5E5E62"/>
</svg>
