<svg width="18" height="18" viewBox="0 0 18 18" fill="none" xmlns="http://www.w3.org/2000/svg">
<path d="M9.00008 0.562507C7.37035 0.56037 5.77487 1.03026 4.40645 1.91541C3.03803 2.80055 1.95524 4.06306 1.28893 5.55036C0.622616 7.03766 0.401299 8.68611 0.651722 10.2965C0.902145 11.9069 1.61359 13.4103 2.70008 14.625L0.736959 16.4644C0.654932 16.542 0.598186 16.6426 0.574108 16.753C0.550029 16.8633 0.559734 16.9784 0.601959 17.0831C0.643642 17.1878 0.715792 17.2775 0.809062 17.3407C0.902333 17.4039 1.01243 17.4376 1.12508 17.4375H9.00008C11.2378 17.4375 13.384 16.5486 14.9663 14.9662C16.5486 13.3839 17.4376 11.2378 17.4376 9.00001C17.4376 6.76224 16.5486 4.61613 14.9663 3.03379C13.384 1.45146 11.2378 0.562507 9.00008 0.562507Z" fill="#5E5E62"/>
<path d="M12.9375 6.75H5.0625C4.91332 6.75 4.77024 6.69074 4.66475 6.58525C4.55926 6.47976 4.5 6.33668 4.5 6.1875C4.5 6.03832 4.55926 5.89524 4.66475 5.78975C4.77024 5.68426 4.91332 5.625 5.0625 5.625H12.9375C13.0867 5.625 13.2298 5.68426 13.3352 5.78975C13.4407 5.89524 13.5 6.03832 13.5 6.1875C13.5 6.33668 13.4407 6.47976 13.3352 6.58525C13.2298 6.69074 13.0867 6.75 12.9375 6.75ZM12.9375 9.5625H5.0625C4.91332 9.5625 4.77024 9.50324 4.66475 9.39775C4.55926 9.29226 4.5 9.14918 4.5 9C4.5 8.85082 4.55926 8.70774 4.66475 8.60225C4.77024 8.49676 4.91332 8.4375 5.0625 8.4375H12.9375C13.0867 8.4375 13.2298 8.49676 13.3352 8.60225C13.4407 8.70774 13.5 8.85082 13.5 9C13.5 9.14918 13.4407 9.29226 13.3352 9.39775C13.2298 9.50324 13.0867 9.5625 12.9375 9.5625ZM12.9375 12.375H5.0625C4.91332 12.375 4.77024 12.3157 4.66475 12.2102C4.55926 12.1048 4.5 11.9617 4.5 11.8125C4.5 11.6633 4.55926 11.5202 4.66475 11.4148C4.77024 11.3093 4.91332 11.25 5.0625 11.25H12.9375C13.0867 11.25 13.2298 11.3093 13.3352 11.4148C13.4407 11.5202 13.5 11.6633 13.5 11.8125C13.5 11.9617 13.4407 12.1048 13.3352 12.2102C13.2298 12.3157 13.0867 12.375 12.9375 12.375Z" fill="white"/>
</svg>
