<svg width="48" height="48" viewBox="0 0 48 48" fill="none" xmlns="http://www.w3.org/2000/svg">
<circle cx="24" cy="24" r="24" fill="#D9D9D9"/>
<path d="M31.6721 26.667C33.3281 26.667 34.6705 28.0094 34.6705 29.6655V30.89C34.6705 31.6546 34.4316 32.3999 33.9871 33.0219C31.926 35.9062 28.5603 37.3351 23.9999 37.3351C19.4385 37.3351 16.0746 35.9056 14.0184 33.0198C13.5758 32.3986 13.3379 31.6548 13.3379 30.892V29.6655C13.3379 28.0094 14.6804 26.667 16.3364 26.667H31.6721ZM23.9999 10.6732C27.6817 10.6732 30.6665 13.658 30.6665 17.3399C30.6665 21.0218 27.6817 24.0066 23.9999 24.0066C20.3179 24.0066 17.3332 21.0218 17.3332 17.3399C17.3332 13.658 20.3179 10.6732 23.9999 10.6732Z" fill="#9F9F9F"/>
</svg>
