<svg width="16" height="20" viewBox="0 0 16 20" fill="none" xmlns="http://www.w3.org/2000/svg">
<path d="M0 2.25C0 1.00736 1.00736 0 2.25 0H6.5039V4.74753C6.5039 5.99017 7.5113 6.99753 8.7539 6.99753H13.5V15.25C13.5 16.4926 12.4926 17.5 11.25 17.5H2.25C1.00736 17.5 0 16.4926 0 15.25V2.25ZM3.75 9.5C3.33579 9.5 3 9.8358 3 10.25C3 10.6642 3.33579 11 3.75 11C4.16421 11 4.5 10.6642 4.5 10.25C4.5 9.8358 4.16421 9.5 3.75 9.5ZM3 13.25C3 13.6642 3.33579 14 3.75 14C4.16421 14 4.5 13.6642 4.5 13.25C4.5 12.8358 4.16421 12.5 3.75 12.5C3.33579 12.5 3 12.8358 3 13.25ZM6 10.25C6 10.6642 6.3358 11 6.75 11H9.8038C10.218 11 10.5538 10.6642 10.5538 10.25C10.5538 9.8358 10.218 9.5 9.8038 9.5H6.75C6.3358 9.5 6 9.8358 6 10.25ZM6.75 12.5C6.3358 12.5 6 12.8358 6 13.25C6 13.6642 6.3358 14 6.75 14H9.8038C10.218 14 10.5538 13.6642 10.5538 13.25C10.5538 12.8358 10.218 12.5 9.8038 12.5H6.75ZM8.0039 4.74753V0.46728C8.0803 0.52611 8.1532 0.59009 8.2221 0.65901L12.841 5.27786C12.9103 5.34721 12.9747 5.42062 13.0338 5.49753H8.7539C8.3397 5.49753 8.0039 5.16174 8.0039 4.74753ZM2.62891 18.5C2.93778 19.3739 3.77121 20 4.75088 20H11.2509C13.8742 20 16.0009 17.8734 16.0009 15.25V9.3689C16.0009 8.7721 15.7638 8.1998 15.3419 7.77788L14.5009 6.93689V15.25C14.5009 17.0449 13.0458 18.5 11.2509 18.5H2.62891Z" fill="#5E5E62"/>
</svg>
