<svg width="25" height="26" viewBox="0 0 25 26" fill="none" xmlns="http://www.w3.org/2000/svg">
<rect y="0.75" width="25" height="25" rx="12.5" fill="#D9D9D9"/>
<path d="M16.3339 14.5814C17.1619 14.5814 17.8331 15.2526 17.8331 16.0806V16.6929C17.8331 17.0752 17.7136 17.4478 17.4913 17.7588C16.4608 19.201 14.7779 19.9154 12.4977 19.9154C10.2171 19.9154 8.5351 19.2007 7.50699 17.7578C7.28568 17.4472 7.16675 17.0753 7.16675 16.6939V16.0806C7.16675 15.2526 7.83798 14.5814 8.66599 14.5814H16.3339ZM12.4977 6.58447C14.3387 6.58447 15.8311 8.07686 15.8311 9.91781C15.8311 11.7588 14.3387 13.2512 12.4977 13.2512C10.6568 13.2512 9.16439 11.7588 9.16439 9.91781C9.16439 8.07686 10.6568 6.58447 12.4977 6.58447Z" fill="#5E5E62"/>
</svg>
