<svg width="16" height="16" viewBox="0 0 16 16" fill="none" xmlns="http://www.w3.org/2000/svg">
<path d="M7.99996 9.33317C8.73634 9.33317 9.33329 8.73622 9.33329 7.99984C9.33329 7.26346 8.73634 6.6665 7.99996 6.6665C7.26358 6.6665 6.66663 7.26346 6.66663 7.99984C6.66663 8.73622 7.26358 9.33317 7.99996 9.33317Z" fill="#5E5E62"/>
<path d="M7.99996 4.66667C8.73634 4.66667 9.33329 4.06971 9.33329 3.33333C9.33329 2.59695 8.73634 2 7.99996 2C7.26358 2 6.66663 2.59695 6.66663 3.33333C6.66663 4.06971 7.26358 4.66667 7.99996 4.66667Z" fill="#5E5E62"/>
<path d="M7.99996 14.0002C8.73634 14.0002 9.33329 13.4032 9.33329 12.6668C9.33329 11.9304 8.73634 11.3335 7.99996 11.3335C7.26358 11.3335 6.66663 11.9304 6.66663 12.6668C6.66663 13.4032 7.26358 14.0002 7.99996 14.0002Z" fill="#5E5E62"/>
</svg>
