<svg width="16" height="21" viewBox="0 0 16 21" fill="none" xmlns="http://www.w3.org/2000/svg">
<path d="M13.7499 0.0078125C14.9407 0.0078125 15.9155 0.932972 15.9947 2.10376L15.9999 2.25781V17.7559C15.9999 18.9467 15.0747 19.9215 13.9039 20.0007L13.7499 20.0059H2.25C1.05914 20.0059 0.0843599 19.0807 0.0051899 17.9099L0 17.7559V2.25781C0 1.06695 0.92516 0.0921724 2.09595 0.0130024L2.25 0.0078125H13.7499ZM3.74976 5.00073C3.33554 5.00073 2.99976 5.33652 2.99976 5.75073C2.99976 6.16495 3.33554 6.50073 3.74976 6.50073H12.2498C12.664 6.50073 12.9998 6.16495 12.9998 5.75073C12.9998 5.33652 12.664 5.00073 12.2498 5.00073H3.74976ZM2.99976 9.7507C2.99976 10.1649 3.33554 10.5007 3.74976 10.5007H12.2498C12.664 10.5007 12.9998 10.1649 12.9998 9.7507C12.9998 9.3365 12.664 9.0007 12.2498 9.0007H3.74976C3.33554 9.0007 2.99976 9.3365 2.99976 9.7507ZM3.74976 13.0007C3.33554 13.0007 2.99976 13.3365 2.99976 13.7507C2.99976 14.1649 3.33554 14.5007 3.74976 14.5007H12.2498C12.664 14.5007 12.9998 14.1649 12.9998 13.7507C12.9998 13.3365 12.664 13.0007 12.2498 13.0007H3.74976Z" fill="#5E5E62"/>
</svg>
