<svg id="nav-menu" xmlns="http://www.w3.org/2000/svg" width="14" height="14" viewBox="0 0 14 14">
  <path id="Path_5" data-name="Path 5" d="M.538,2.145H9.251a1.615,1.615,0,0,0,3.037,0h1.174a.539.539,0,0,0,0-1.079H12.288a1.615,1.615,0,0,0-3.037,0H.538a.539.539,0,0,0,0,1.079Zm0,0H9.251a1.615,1.615,0,0,0,3.037,0h1.174a.539.539,0,0,0,0-1.079H12.288M.538,2.145H9.251a1.615,1.615,0,0,0,3.037,0h1.174a.539.539,0,0,0,0-1.079H12.288a1.615,1.615,0,0,0-3.037,0H.538a.539.539,0,0,0,0,1.079Zm0,0H9.251a1.615,1.615,0,0,0,3.037,0h1.174a.539.539,0,0,0,0-1.079M.538,2.145H9.251a1.615,1.615,0,0,0,3.037,0h1.174a.539.539,0,0,0,0-1.079H12.288a1.615,1.615,0,0,0-3.037,0H.538a.539.539,0,0,0,0,1.079Zm0,0H9.251a1.615,1.615,0,0,0,3.037,0h1.174a.539.539,0,0,0,0-1.079"/>
  <path id="Path_6" data-name="Path 6" d="M4.749,6.461h8.712a.539.539,0,0,1,0,1.079H4.749a1.615,1.615,0,0,1-3.037,0H.538a.539.539,0,0,1,0-1.079H1.712a1.615,1.615,0,0,1,3.037,0Z"/>
  <path id="Path_7" data-name="Path 7" d="M9.6,11.855h3.866a.539.539,0,0,1,0,1.079H9.6a1.615,1.615,0,0,1-3.037,0H.538a.539.539,0,0,1,0-1.079h6.02a1.615,1.615,0,0,1,3.037,0Z"/>
  <path id="Path_8" data-name="Path 8" d="M11.068,1.157a.54.54,0,1,0,.2.242A.537.537,0,0,0,11.068,1.157Z" fill="#fff"/>
  <path id="Path_9" data-name="Path 9" d="M2.932,7.448a.54.54,0,1,0-.2-.242A.538.538,0,0,0,2.932,7.448Z" fill="#fff"/>
  <path id="Path_10" data-name="Path 10" d="M7.778,12.843a.54.54,0,1,0-.2-.242A.538.538,0,0,0,7.778,12.843Z" fill="#fff"/>
</svg>
