<svg width="25" height="25" viewBox="0 0 25 25" fill="none" xmlns="http://www.w3.org/2000/svg">
<rect width="25" height="25" rx="12.5" fill="#D9D9D9"/>
<path d="M16.3341 13.8314C17.1621 13.8314 17.8333 14.5026 17.8333 15.3307V15.9429C17.8333 16.3252 17.7138 16.6979 17.4916 17.0089C16.461 18.451 14.7782 19.1655 12.498 19.1655C10.2173 19.1655 8.53535 18.4507 7.50724 17.0078C7.28593 16.6972 7.16699 16.3253 7.16699 15.9439V15.3307C7.16699 14.5026 7.83823 13.8314 8.66624 13.8314H16.3341ZM12.498 5.83453C14.3389 5.83453 15.8313 7.32692 15.8313 9.16787C15.8313 11.0088 14.3389 12.5012 12.498 12.5012C10.657 12.5012 9.16463 11.0088 9.16463 9.16787C9.16463 7.32692 10.657 5.83453 12.498 5.83453Z" fill="#5E5E62"/>
</svg>
