<svg xmlns="http://www.w3.org/2000/svg" width="18" height="18" viewBox="0 0 18 18">
  <path id="phone" d="M17.677,15.595c-.556,1.688-2.732,2.53-4.288,2.39A13.674,13.674,0,0,1,7.2,15.426,20.387,20.387,0,0,1,.8,7.786C-.2,5.671-.421,3.07,1.059,1.141A2.545,2.545,0,0,1,3.087,0c1.234-.06,1.406.646,1.83,1.745.316.822.737,1.66.972,2.512.44,1.59-1.1,1.656-1.294,2.956-.12.82.872,1.919,1.321,2.5A12.126,12.126,0,0,0,9.046,12.6c.684.431,1.786,1.207,2.568.779,1.2-.66,1.092-2.691,2.776-2a27.11,27.11,0,0,1,2.55,1.317c1.288.692,1.228,1.41.737,2.9Z" fill="#5e5e62" fill-rule="evenodd"/>
</svg>
