<svg id="success-truck" xmlns="http://www.w3.org/2000/svg" width="29" height="29" viewBox="0 0 29 29">
  <rect id="Rectangle_1" data-name="Rectangle 1" width="29" height="29" rx="14.5" fill="#e1f4f0"/>
  <path id="Path_1" data-name="Path 1" d="M18.565,10.75H21l2.439,3.75v4.688H21.816A2.648,2.648,0,0,1,19.378,22a2.648,2.648,0,0,1-2.439-2.812H12.061A2.648,2.648,0,0,1,9.622,22a2.648,2.648,0,0,1-2.439-2.812H5.558V8.875A1.763,1.763,0,0,1,7.183,7H18.565ZM8.4,19.188a1.321,1.321,0,0,0,1.219,1.406,1.421,1.421,0,0,0,0-2.813A1.321,1.321,0,0,0,8.4,19.188ZM22.194,14.5l-1.6-2.344H18.565V14.5Zm-4.036,4.688a1.321,1.321,0,0,0,1.219,1.406,1.421,1.421,0,0,0,0-2.813A1.321,1.321,0,0,0,18.158,19.188ZM5.637,11.341H11.6v-.5H5.637Zm5.962,2.5H5.637v-.5H11.6Zm-5.962,2.5H11.6v-.5H5.637Z" fill="#44b49c" fill-rule="evenodd"/>
</svg>
