<svg width="25" height="25" viewBox="0 0 25 25" fill="none" xmlns="http://www.w3.org/2000/svg">
<rect width="25" height="25" rx="12.5" fill="#D9D9D9"/>
<path fill-rule="evenodd" clip-rule="evenodd" d="M15.3278 9.89111H17.0245L18.7212 12.5V15.7611H17.5901C17.5901 16.8405 16.8294 17.7178 15.8934 17.7178C14.9574 17.7178 14.1967 16.8405 14.1967 15.7611H10.8033C10.8033 16.8405 10.0426 17.7178 9.10662 17.7178C8.17062 17.7178 7.40993 16.8405 7.40993 15.7611H6.27881V8.58667C6.27881 7.86597 6.78499 7.28223 7.40993 7.28223H15.3278V9.89111ZM8.25828 15.7611C8.25828 16.3025 8.63721 16.7394 9.10662 16.7394C9.57604 16.7394 9.95497 16.3025 9.95497 15.7611C9.95497 15.2198 9.57604 14.7828 9.10662 14.7828C8.63721 14.7828 8.25828 15.2198 8.25828 15.7611ZM17.8531 12.5L16.7417 10.8694H15.3278V12.5H17.8531ZM15.045 15.7611C15.045 16.3025 15.424 16.7394 15.8934 16.7394C16.3628 16.7394 16.7417 16.3025 16.7417 15.7611C16.7417 15.2198 16.3628 14.7828 15.8934 14.7828C15.424 14.7828 15.045 15.2198 15.045 15.7611ZM6.33447 10.3789H10.4819V9.87891H6.33447V10.3789ZM10.4819 12.1182H6.33447V11.6182H10.4819V12.1182ZM6.33447 13.8574H10.4819V13.3574H6.33447V13.8574Z" fill="#5E5E62"/>
</svg>
