<svg id="warning-icon" xmlns="http://www.w3.org/2000/svg" width="29" height="29" viewBox="0 0 29 29">
  <rect id="Rectangle_2" data-name="Rectangle 2" width="29" height="29" rx="14.5" fill="#fcedd9"/>
  <path id="Path_2" data-name="Path 2" d="M22.66,18.29,16.73,8.249a2.675,2.675,0,0,0-.961-.916,2.6,2.6,0,0,0-2.548,0,2.675,2.675,0,0,0-.961.916L6.33,18.29a2.411,2.411,0,0,0-.039,2.368,2.634,2.634,0,0,0,.959.985A2.564,2.564,0,0,0,8.565,22H20.426a2.564,2.564,0,0,0,1.309-.344,2.633,2.633,0,0,0,.964-.967,2.411,2.411,0,0,0-.039-2.4Zm-8.165.552a.763.763,0,0,1-.43-.133.786.786,0,0,1-.285-.354.8.8,0,0,1-.044-.456.794.794,0,0,1,.212-.4.768.768,0,0,1,.4-.216.758.758,0,0,1,.447.045.777.777,0,0,1,.347.291.8.8,0,0,1-.1,1A.765.765,0,0,1,14.5,18.842Zm.773-3.157a.8.8,0,0,1-.226.558.762.762,0,0,1-1.093,0,.8.8,0,0,1-.227-.558V12.528a.8.8,0,0,1,.227-.558.762.762,0,0,1,1.093,0,.8.8,0,0,1,.226.558Z" fill="#e78911"/>
</svg>
